<svg width="19" height="26" viewBox="0 0 19 26" fill="none" xmlns="http://www.w3.org/2000/svg">
<path d="M18.1315 16.5157C18.1315 15.314 17.8771 14.1739 17.3999 13.0954C16.9546 12.0478 16.2866 11.0926 15.4595 10.2915C14.6325 9.49034 13.6782 8.84327 12.5966 8.41189C11.4515 7.9497 10.2745 7.73401 9.06577 7.73401C7.8252 7.73401 6.64823 7.9497 5.53489 8.41189C5.24861 8.53514 4.99413 8.62758 4.77146 8.78164V0L0 1.54064V16.5157C0 17.6865 0.222674 18.8574 0.69982 19.9359C1.14516 20.9835 1.81316 21.9079 2.64021 22.709C3.46726 23.541 4.45337 24.1572 5.53489 24.5886C6.64823 25.0508 7.8252 25.2973 9.06577 25.2973C10.2745 25.2973 11.4515 25.0508 12.5966 24.5886C13.6464 24.1572 14.6325 23.5102 15.4595 22.709C16.2866 21.9079 16.9546 20.9835 17.3999 19.9359C17.8771 18.8266 18.1315 17.6865 18.1315 16.5157ZM13.3601 16.5157C13.3601 18.7958 11.4197 20.6754 9.06577 20.6754C6.68005 20.6754 4.77146 18.7958 4.77146 16.5157C4.77146 14.2047 6.68005 12.3559 9.06577 12.3559C11.4197 12.3559 13.3601 14.2047 13.3601 16.5157Z" fill="#1D1E1F"/>
</svg>
