<svg width="138" height="26" viewBox="0 0 138 26" fill="none" xmlns="http://www.w3.org/2000/svg">
<path d="M18.1315 16.5157C18.1315 15.314 17.8771 14.1739 17.3999 13.0954C16.9546 12.0478 16.2866 11.0926 15.4595 10.2915C14.6325 9.49034 13.6782 8.84327 12.5966 8.41189C11.4515 7.9497 10.2745 7.73401 9.06577 7.73401C7.8252 7.73401 6.64823 7.9497 5.53489 8.41189C5.24861 8.53514 4.99413 8.62758 4.77146 8.78164V0L0 1.54064V16.5157C0 17.6865 0.222674 18.8574 0.69982 19.9359C1.14516 20.9835 1.81316 21.9079 2.64021 22.709C3.46726 23.541 4.45337 24.1572 5.53489 24.5886C6.64823 25.0508 7.8252 25.2973 9.06577 25.2973C10.2745 25.2973 11.4515 25.0508 12.5966 24.5886C13.6464 24.1572 14.6325 23.5102 15.4595 22.709C16.2866 21.9079 16.9546 20.9835 17.3999 19.9359C17.8771 18.8266 18.1315 17.6865 18.1315 16.5157ZM13.3601 16.5157C13.3601 18.7958 11.4197 20.6754 9.06577 20.6754C6.68005 20.6754 4.77146 18.7958 4.77146 16.5157C4.77146 14.2047 6.68005 12.3559 9.06577 12.3559C11.4197 12.3559 13.3601 14.2047 13.3601 16.5157Z" fill="#8323E0"/>
<path d="M27.1429 25.2973C29.2741 25.2973 31.2781 24.4962 32.7732 23.048C34.2682 21.5998 35.0953 19.6586 35.0953 17.5941V7.91888H30.3238V17.5941C30.3238 19.2888 28.8924 20.6754 27.1429 20.6754C25.3933 20.6754 23.9619 19.2888 23.9619 17.5941V7.91888H19.1904V17.5941C19.1904 19.6586 20.0175 21.5998 21.5125 23.048C23.0076 24.4962 25.0116 25.2973 27.1429 25.2973Z" fill="#8323E0"/>
<path d="M37.1783 19.9359C37.6555 20.9835 38.2917 21.9387 39.1187 22.7398C39.9776 23.541 40.9319 24.188 42.0134 24.6194C43.1267 25.0816 44.3355 25.2973 45.5443 25.2973C46.753 25.2973 47.9618 25.0816 49.0752 24.6194C50.1567 24.188 51.111 23.541 51.9698 22.7398C52.7969 21.9387 53.4331 20.9835 53.9102 19.9359C54.3874 18.8574 54.61 17.7174 54.61 16.5157V1.57146L49.8386 0.0308228V8.78165C49.5841 8.6584 49.3296 8.53515 49.0752 8.44271C47.9618 7.98052 46.7849 7.76483 45.5443 7.76483C44.3355 7.76483 43.1267 7.98052 42.0134 8.44271C40.9319 8.87409 39.9776 9.52116 39.1187 10.3223C38.2917 11.1234 37.6555 12.0786 37.1783 13.1263C36.733 14.2047 36.4785 15.3448 36.4785 16.5157C36.4785 17.7174 36.733 18.8574 37.1783 19.9359ZM45.5443 12.3559C47.8982 12.3559 49.8386 14.2355 49.8386 16.5157C49.8386 18.8266 47.8982 20.6754 45.5443 20.6754C43.1904 20.6754 41.25 18.8266 41.25 16.5157C41.25 14.2355 43.1904 12.3559 45.5443 12.3559Z" fill="#8323E0"/>
<path d="M56.6871 19.9359C57.1643 20.9835 57.8005 21.9387 58.6275 22.7398C59.4864 23.541 60.4407 24.188 61.5222 24.6194C62.6355 25.0816 63.8443 25.2973 65.0531 25.2973C66.2618 25.2973 67.4706 25.0816 68.5839 24.6194C69.6655 24.188 70.6198 23.541 71.4786 22.7398C72.3057 21.9387 72.9419 20.9835 73.419 19.9359C73.8962 18.8574 74.1188 17.7174 74.1188 16.5157V1.57146L69.3474 0.0308228V8.78165C69.0929 8.6584 68.8384 8.53515 68.5839 8.44271C67.4706 7.98052 66.2936 7.76483 65.0531 7.76483C63.8443 7.76483 62.6355 7.98052 61.5222 8.44271C60.4407 8.87409 59.4864 9.52116 58.6275 10.3223C57.8005 11.1234 57.1643 12.0786 56.6871 13.1263C56.2418 14.2047 55.9873 15.3448 55.9873 16.5157C55.9873 17.7174 56.2418 18.8574 56.6871 19.9359ZM65.0531 12.3559C67.407 12.3559 69.3474 14.2355 69.3474 16.5157C69.3474 18.8266 67.407 20.6754 65.0531 20.6754C62.6991 20.6754 60.7588 18.8266 60.7588 16.5157C60.7588 14.2355 62.6991 12.3559 65.0531 12.3559Z" fill="#8323E0"/>
<path d="M76.7041 25.0816H81.5074V7.30261L76.7041 8.84325V25.0816Z" fill="#8323E0"/>
<path d="M91.8185 25.2049C93.0591 25.2049 94.2678 24.9584 95.413 24.4653C96.5263 24.0032 97.5124 23.3253 98.3395 22.4933L94.9676 19.4121C94.1406 20.2748 93.0273 20.737 91.8185 20.737C90.2598 20.737 88.892 19.9359 88.1286 18.765H100.757V16.5156C100.757 14.2047 99.8345 12.017 98.1486 10.3839C96.4627 8.75083 94.2042 7.82645 91.8185 7.82645C89.4009 7.82645 87.1743 8.75083 85.4566 10.3839C83.7706 12.017 82.8481 14.2047 82.8481 16.5156C82.8481 18.8266 83.7706 21.0143 85.4566 22.6474C87.1743 24.2805 89.4009 25.2049 91.8185 25.2049ZM88.1286 14.2971C88.892 13.0954 90.2598 12.2943 91.8185 12.2943C93.3454 12.2943 94.7132 13.0954 95.5084 14.2971H88.1286Z" fill="#8323E0"/>
<path d="M115.54 10.4763C114.013 9.02815 112.009 8.22701 109.878 8.22701C108.733 8.22701 107.651 8.4427 106.665 8.87408V7.73401H101.894V15.2831C101.862 15.5296 101.862 15.7453 101.862 15.9918H101.894V25.0816H106.665V15.5296C106.888 14.0198 108.224 12.8489 109.878 12.8489C111.659 12.8489 113.122 14.2663 113.122 15.9918V25.0816H117.894V15.9918C117.894 13.8966 117.035 11.9554 115.54 10.4763Z" fill="#8323E0"/>
<path d="M119.871 19.9359C120.348 20.9835 120.985 21.9387 121.812 22.7398C122.67 23.541 123.625 24.188 124.706 24.6194C125.82 25.0816 127.028 25.2973 128.237 25.2973C129.446 25.2973 130.655 25.0816 131.768 24.6194C132.85 24.188 133.804 23.541 134.663 22.7398C135.49 21.9387 136.126 20.9835 136.603 19.9359C137.08 18.8574 137.303 17.7174 137.303 16.5157V1.57146L132.531 0.0308228V8.78165C132.277 8.6584 132.022 8.53515 131.768 8.44271C130.655 7.98052 129.478 7.76483 128.237 7.76483C127.028 7.76483 125.82 7.98052 124.706 8.44271C123.625 8.87409 122.67 9.52116 121.812 10.3223C120.985 11.1234 120.348 12.0786 119.871 13.1263C119.426 14.2047 119.171 15.3448 119.171 16.5157C119.171 17.7174 119.426 18.8574 119.871 19.9359ZM128.237 12.3559C130.591 12.3559 132.531 14.2355 132.531 16.5157C132.531 18.8266 130.591 20.6754 128.237 20.6754C125.883 20.6754 123.943 18.8266 123.943 16.5157C123.943 14.2355 125.883 12.3559 128.237 12.3559Z" fill="#8323E0"/>
</svg>
